<svg id="Layer_1" data-name="Layer 1" xmlns="http://www.w3.org/2000/svg" viewBox="0 0 512 512"><defs><style>.cls-1{fill:#ff5f00;}.cls-2{fill:#e9001b;}.cls-3{fill:#f59c1b;}</style></defs><path d="M118.11,423.47V401.14c0-8.56-5.21-14.14-14.14-14.14a14.68,14.68,0,0,0-12.65,6.33C88.71,389.23,85,387,79.41,387A12,12,0,0,0,69,392.21v-4.46H61.17v35.72H69V403.75c0-6.33,3.35-9.31,8.56-9.31s7.81,3.35,7.81,9.31v19.72h7.82V403.75c0-6.33,3.72-9.31,8.56-9.31,5.21,0,7.81,3.35,7.81,9.31v19.72Zm115.75-35.72H221.2V377h-7.81v10.8h-7.07v7.07h7.07v16.37c0,8.19,3.35,13,12.28,13a20.76,20.76,0,0,0,9.67-2.61l-2.23-6.7a12.23,12.23,0,0,1-6.7,1.86c-3.72,0-5.21-2.23-5.21-5.95v-16h12.66ZM300.1,387a10.48,10.48,0,0,0-9.3,5.21v-4.46H283v35.72h7.82V403.38c0-6,2.6-9.31,7.44-9.31a21.36,21.36,0,0,1,4.84.75l2.23-7.45A24.71,24.71,0,0,0,300.1,387ZM200,390.72c-3.72-2.6-8.93-3.72-14.51-3.72-8.94,0-14.89,4.47-14.89,11.54,0,5.95,4.46,9.3,12.28,10.42l3.72.37c4.1.75,6.33,1.86,6.33,3.72,0,2.61-3,4.47-8.19,4.47a20.56,20.56,0,0,1-11.91-3.72l-3.72,5.95c4.09,3,9.68,4.47,15.26,4.47,10.42,0,16.37-4.84,16.37-11.54,0-6.33-4.83-9.68-12.28-10.79l-3.72-.37c-3.35-.38-5.95-1.12-5.95-3.35,0-2.61,2.6-4.1,6.7-4.1a26.76,26.76,0,0,1,11.16,3l3.35-6.33ZM407.66,387a10.49,10.49,0,0,0-9.31,5.21v-4.46h-7.81v35.72h7.81V403.38c0-6,2.61-9.31,7.45-9.31a21.36,21.36,0,0,1,4.83.75l2.24-7.45A24.76,24.76,0,0,0,407.66,387Zm-99.74,18.61c0,10.79,7.44,18.61,19,18.61,5.21,0,8.93-1.12,12.65-4.1l-3.72-6.32a15.08,15.08,0,0,1-9.31,3.35c-6.32,0-10.79-4.47-10.79-11.54,0-6.7,4.47-11.17,10.79-11.54a15.08,15.08,0,0,1,9.31,3.35l3.72-6.33c-3.72-3-7.44-4.09-12.65-4.09-11.54,0-19,7.82-19,18.61Zm72.2,0V387.75H372.3v4.46A13.44,13.44,0,0,0,361.14,387c-10.05,0-17.87,7.82-17.87,18.61s7.82,18.61,17.87,18.61c5.21,0,8.93-1.86,11.16-5.21v4.46h7.82V405.61Zm-28.66,0c0-6.33,4.09-11.54,10.79-11.54,6.33,0,10.79,4.84,10.79,11.54,0,6.33-4.46,11.54-10.79,11.54C355.55,416.77,351.46,411.94,351.46,405.61ZM258.05,387c-10.42,0-17.87,7.44-17.87,18.61s7.45,18.61,18.24,18.61a22.74,22.74,0,0,0,14.51-4.84l-3.72-5.58a17.81,17.81,0,0,1-10.42,3.72c-4.84,0-9.68-2.23-10.79-8.56h26.42v-3c.37-11.54-6.32-19-16.37-19Zm0,6.7c4.83,0,8.18,3,8.93,8.56H248.37C249.11,397.42,252.46,393.7,258.05,393.7Zm193.89,11.91v-32h-7.81v18.61A13.46,13.46,0,0,0,433,387c-10,0-17.86,7.82-17.86,18.61s7.81,18.61,17.86,18.61c5.21,0,8.93-1.86,11.17-5.21v4.46h7.81V405.61Zm-28.65,0c0-6.33,4.09-11.54,10.79-11.54,6.33,0,10.79,4.84,10.79,11.54,0,6.33-4.46,11.54-10.79,11.54C427.38,416.77,423.29,411.94,423.29,405.61Zm-261.26,0V387.75h-7.82v4.46A13.43,13.43,0,0,0,143.05,387c-10.05,0-17.87,7.82-17.87,18.61s7.82,18.61,17.87,18.61c5.21,0,8.93-1.86,11.16-5.21v4.46H162V405.61Zm-29,0c0-6.33,4.09-11.54,10.79-11.54,6.33,0,10.8,4.84,10.8,11.54,0,6.33-4.47,11.54-10.8,11.54C137.09,416.77,133,411.94,133,405.61Z"/><rect class="cls-1" x="197.38" y="116.44" width="117.23" height="210.64"/><path class="cls-2" d="M204.83,221.76a134.32,134.32,0,0,1,51-105.32,134,134,0,1,0,0,210.64A133.76,133.76,0,0,1,204.83,221.76Z"/><path class="cls-3" d="M472.78,221.76A133.83,133.83,0,0,1,256.19,327.08a134.28,134.28,0,0,0,0-210.64,133.16,133.16,0,0,1,82.62-28.66C412.87,87.78,472.78,148.07,472.78,221.76Z"/></svg>