<svg id="Layer_1" data-name="Layer 1" xmlns="http://www.w3.org/2000/svg" viewBox="0 0 512 512"><defs><style>.cls-1{fill:#0057a0;}.cls-2{fill:#faa61b;}</style></defs><path class="cls-1" d="M326.41,189.51a3.7,3.7,0,0,0,1.36.15,90.65,90.65,0,0,1,25.52,4.86c1.22.43,1.23.43,1,1.72q-1.44,8.4-2.88,16.81-.81,4.68-1.6,9.38c0,.11-.05.22-.07.32a1.16,1.16,0,0,1-.75-.24A61.86,61.86,0,0,0,329.87,217a65.53,65.53,0,0,0-13.06-.36,28,28,0,0,0-9.48,2.22,14.38,14.38,0,0,0-4.69,3.2,8,8,0,0,0-2.41,5.76,7.31,7.31,0,0,0,1.58,4.32,15.75,15.75,0,0,0,3.29,3.18,60.13,60.13,0,0,0,8.7,5.18c3.63,1.9,7.39,3.55,11,5.43a65.58,65.58,0,0,1,12.93,8.49,35.5,35.5,0,0,1,8.16,9.81,27.17,27.17,0,0,1,3.4,12q.84,20.28-15,33a55.35,55.35,0,0,1-18.47,9.46,82.65,82.65,0,0,1-15.5,3.18c-2.32.25-4.65.46-7,.54a1.32,1.32,0,0,0-.76.12H285a4.48,4.48,0,0,0-1.46-.14,123.7,123.7,0,0,1-25.74-3.83,60.55,60.55,0,0,1-7.88-2.6c-.72-.3-.72-.3-.6-1q2.22-12.89,4.42-25.77c.13-.73.25-1.47.38-2.24a1.94,1.94,0,0,1,1,.33,119.29,119.29,0,0,0,11.07,4.5,65.31,65.31,0,0,0,15.26,3.39,92.65,92.65,0,0,0,11.17.45,32,32,0,0,0,11.59-2.23,15.41,15.41,0,0,0,6.45-4.52,9.18,9.18,0,0,0,0-11.6,19.53,19.53,0,0,0-3.78-3.43,59.68,59.68,0,0,0-8.08-4.7c-3.43-1.72-7-3.24-10.35-5.05a70.3,70.3,0,0,1-12.9-8.56A35.35,35.35,0,0,1,266.34,244a26.59,26.59,0,0,1-2.61-12.25c.24-11.12,4.87-20.15,13.11-27.44a52.88,52.88,0,0,1,16-9.5,75,75,0,0,1,17.77-4.44q4-.53,8.11-.71c.19,0,.41.05.57-.13Z"/><path class="cls-2" d="M39.22,194c.48-.38.31-1,.44-1.44.2-.78.16-.79,1-.79q27.74,0,55.48,0a23.61,23.61,0,0,1,6.92,1,12.8,12.8,0,0,1,9.32,10.2c2.59,12.16,5.09,24.34,7.62,36.51q2.16,10.38,4.3,20.76a8.08,8.08,0,0,1,.1.86c-.11-.24-.24-.46-.34-.7a98.05,98.05,0,0,0-20.52-31.11A114.75,114.75,0,0,0,79,210.17a24.38,24.38,0,0,0-2.65-1.46c-1.69-1.06-3.48-1.93-5.26-2.82A150,150,0,0,0,39.9,194.62a1.59,1.59,0,0,0-.68-.08Z"/><path class="cls-1" d="M76.3,208.71A24.38,24.38,0,0,1,79,210.17a114.75,114.75,0,0,1,24.58,19.16,98.05,98.05,0,0,1,20.52,31.11c.1.24.23.46.34.7.6,2.05.92,4.17,1.36,6.25.83,3.93,1.62,7.86,2.43,11.79,0,.07,0,.15.09.27a1.66,1.66,0,0,0,.44-.85q10.48-26.78,21-53.54,6.33-16.16,12.65-32.33c.33-.83.33-.83,1.23-.83h36.17a2.32,2.32,0,0,1-.33,1q-15.24,35.47-30.5,71-12,27.8-23.89,55.61a1.33,1.33,0,0,1-1.44,1q-17.39,0-34.77,0h-.7c-.78,0-.65,0-.85-.69-1.06-3.74-2.1-7.5-3.15-11.25l-16.74-60L76.44,209.38C76.38,209.16,76.35,208.93,76.3,208.71Z"/><path class="cls-1" d="M192.16,320.48a19.66,19.66,0,0,1,.4-2.63q2.3-13.49,4.61-27,2.21-13,4.4-25.94,2.13-12.47,4.27-24.92,1.95-11.43,3.88-22.88,1.86-10.92,3.74-21.84c.15-.91.26-1.83.45-2.73s0-.79.91-.79h33.29a1.94,1.94,0,0,1,1,.1,15.89,15.89,0,0,1-.37,2.46q-1.5,8.88-3,17.75Q244.35,220,243,227.88t-2.71,15.87q-1.25,7.31-2.48,14.6l-2.73,15.95-2.85,16.82q-1.51,8.88-3,17.75-.92,5.33-1.81,10.67c0,.11,0,.23-.06.34-.14.7-.14.7-.89.7H192.87A1.21,1.21,0,0,1,192.16,320.48Z"/><path class="cls-1" d="M347.05,320.61a1.39,1.39,0,0,1,.25-.91q25.79-58.41,51.6-116.83a26.77,26.77,0,0,1,1.4-2.78,15.57,15.57,0,0,1,10.94-7.63,29.37,29.37,0,0,1,5.77-.54h26.7c.81,0,.82,0,1,.81q6.17,27.95,12.34,55.87,5.63,25.53,11.26,51,2.18,9.86,4.36,19.7a3.58,3.58,0,0,1,.11,1.17,1.76,1.76,0,0,1-.87.09H441.12c-.76,0-.76,0-.91-.7-.42-1.92-.83-3.83-1.26-5.75q-1.32-6-2.66-12c-.18-.83-.19-.83-1.06-.83l-43.35-.05c-.74,0-.71-.09-1,.75l-6.7,17.55c-.1.24-.2.48-.28.72a.41.41,0,0,1-.46.31H347.05Zm54.21-45.71h29.11L419.92,227C413.74,243,407.47,258.85,401.26,274.9Z"/></svg>