<svg id="Layer_1" data-name="Layer 1" xmlns="http://www.w3.org/2000/svg" viewBox="0 0 512 512"><defs><style>.cls-1{fill:#059aad;}.cls-2{fill:#b9b9b9;}.cls-3{fill:#fafafa;}</style></defs><path class="cls-1" d="M53.33,85.33H458.67A53.34,53.34,0,0,1,512,138.67V373.33a53.34,53.34,0,0,1-53.33,53.34H53.33A53.34,53.34,0,0,1,0,373.33V138.67A53.34,53.34,0,0,1,53.33,85.33Z"/><rect class="cls-2" y="149.33" width="512" height="85.33"/><path class="cls-3" d="M160,320H74.67a10.67,10.67,0,1,1,0-21.33H160A10.67,10.67,0,1,1,160,320Z"/><path class="cls-3" d="M224,362.67H74.67a10.67,10.67,0,1,1,0-21.34H224a10.67,10.67,0,0,1,0,21.34Z"/></svg>