<svg id="Layer_1" data-name="Layer 1" xmlns="http://www.w3.org/2000/svg" viewBox="0 0 512 512"><defs><style>.cls-1{fill:#0070d4;}.cls-2{fill:#fff;}</style></defs><rect class="cls-1" y="89.94" width="512" height="332.12" rx="15"/><path class="cls-2" d="M468.85,306.94c.92,13.3-6.88,24.12-18.14,25.11-3.84.34-7.93.5-12.91.5-3.08,0-6.18-.06-9.18-.11s-6-.13-9-.13h-9v-1.38a20.15,20.15,0,0,1-5.32,1.23c-3.67.36-7.64.52-12.41.52-3,0-6.07-.05-9-.13-2.4-.06-4.85-.11-7.27-.11v.39H345l.1.13H307.4l-2.71-3.12c-1.38-1.65-2.82-3.32-4.23-5v8h-29V313.36a24.65,24.65,0,0,1-12,3.65c-2.06.07-4.25.13-6.91.13h-1.91v15.64h-4.79l.15.21H209.18l-2.69-3.44-4.77-6.05-3.31,4.25L197,329.57,194.29,333H157.7l.24-.28H126.26V267.88h32.12l0-.05h36.48l2.68,3.47,4.51,5.76,4.57-5.81,2.71-3.45h36.48l-.16.21c1.38,0,2.74,0,4.12,0,5.4,0,9.83.18,13.93.54a19.56,19.56,0,0,1,7.82,2.4v-3h9c3,0,6,0,9,0s5.95-.05,8.92-.05c4.88,0,8.89.07,12.6.26a21.18,21.18,0,0,1,9.54,2.71V268h56.14v2.16a22,22,0,0,1,8.42-2.11c3.44-.18,7.14-.26,11.63-.26,2.82,0,5.66,0,8.55.08s5.79,0,8.74,0h13.76l-.18.42c.52-.08,1.05-.16,1.57-.19,3.54-.26,7.32-.36,11.91-.36,2.87,0,5.79.05,8.74.08s5.86.1,8.89.1h13.92l-5.73,12.7-1.75,3.86-2.48,5.48-.75,1.69C466,295.21,468.41,300.34,468.85,306.94Z"/><path class="cls-2" d="M431.75,182.59v64.8h-27.9l-2.66-4.1-4-6.26v10.23H368.21v-.08H355.56l-2.4-5.19-1.72-3.7H340.18l-.34.75-1.39,3.08-2.37,5.32h-31.6l.1-.26a27,27,0,0,1-14.49-6.26v6.34H285.6l0,0H250.56L248.44,246a26.33,26.33,0,0,1-6.91-6.05v7.33h-20v.15H165.73v-.13H146.52l-.05.11H123.7l0-.13h-7.82l0,.05h-32l-2.4-5.27c-.58-1.3-1.18-2.6-1.78-3.93H68.63c-.6,1.3-1.17,2.6-1.77,4l-2.37,5.34H32.88L38.23,235c6.86-16.06,13.48-31.55,20.13-47.09l2.35-5.48H88l2.34,5.48c2.14,5,4.25,10,6.42,15V182.62h33.48l2.13,6,2.82,7.9,2.87-8,2.11-6H173.4v.08h39.17v-.39h34.28a30,30,0,0,1,14.71,3.52v-3.16h28.53v6.81A28.12,28.12,0,0,1,305,183c4.46-.57,8.74-.7,13.27-.86,1.93-.07,3.91-.13,6-.23l9.44-.5v.94H359.6l2.35,5.45,6.26,14.6V182.54h28.37l2.65,4.09,3.68,5.63v-9.67Z"/><path class="cls-1" d="M146.53,191.5h17.88v46.83h-10.3V204.71l-1.64-.29c-4.08,11.29-8.17,22.58-12.31,34H130q-6-16.75-12.14-33.6l-1.29.18v33.29H105.75v-46.7h18.16q5.25,14.71,10.53,29.52l1.44.25Z"/><path class="cls-1" d="M422.74,238.4h-14l-19.33-29.89-1.25.38v29.36h-11V191.54h14.5l18.84,28.91,1.36-.45V191.59h10.84Z"/><path class="cls-1" d="M251.67,222.05a12.55,12.55,0,0,1,1.87-1.35c8.53-4.15,11.92-10,10.22-17.79-1.64-7.64-7.45-11.65-16.94-11.7-5.74,0-11.48,0-17.19,0h-8.08v47.11h11V221.06c11.13,1.8,13,12.8,20.49,17.24h12.8C260.77,232.51,256.28,227.37,251.67,222.05Zm-4.18-10.32c-4.64.73-9.49.23-14.83.23V201.32c5.37,0,10.58-.47,15.64.24,1.7.26,4.38,3.62,4.15,5.19C252.13,208.7,249.48,211.41,247.49,211.73Z"/><path class="cls-1" d="M310.33,307.11c2.14-1,3.65-1.67,5.09-2.45,5.73-3.08,8.5-9.1,7.35-16.12-1-6.12-5.73-11.16-12.23-11.44-9.91-.47-19.84-.13-30.09-.13v46.85h11V307.13h5.71L311.53,324H325.2C320,318.11,315.31,312.77,310.33,307.11Zm-3.13-10.22c-5,.62-10.06.21-15.64.21V286.56c5.45,0,10.66-.44,15.72.26,1.7.24,4,3.39,4.07,5.35C311.45,293.71,308.87,296.65,307.2,296.89Z"/><path class="cls-1" d="M329.49,277h38.15v9.2H340.83v9h26v9.4h-26v9.55h26.75v9.65H329.49Z"/><path class="cls-1" d="M212.51,238.46H174.72V191.58h37.79v9.18h-26.6v9.33h26.16v9.25H186V229h26.48Z"/><path class="cls-1" d="M135.26,323.77V276.89h37.9v9.35H146.4v9.08h26v9.43h-26v9.6h26.76v9.42Z"/><path class="cls-1" d="M353.67,191.39H338.26c-6.65,15.49-13.3,31-20.16,47.06h12.16c1.32-3,2.6-5.84,4.09-9.15h22.81c1.59,3.42,3,6.36,4.15,8.89h12.44C366.86,222.13,360.24,206.72,353.67,191.39Zm-15.38,27.82c2.45-6,4.59-11.29,6.75-16.56.47,0,1,0,1.43-.05,2.14,5.29,4.31,10.56,6.76,16.61Z"/><path class="cls-1" d="M82.07,191.39H66.64c-6.65,15.54-13.27,31-20.13,47.09H58.63c1.41-3.18,2.77-6.15,4.18-9.31H85.49c1.49,3.23,2.84,6.21,4.2,9.2H102.2C95.29,222.29,88.65,206.77,82.07,191.39ZM66.79,219.11c2.35-5.85,4.49-11.22,6.63-16.56H74.8c2.16,5.24,4.33,10.51,6.81,16.56Z"/><path class="cls-1" d="M409.84,286.33H390.29c-3.2,0-5.91.89-5.82,4.67.08,3.51,2.66,4.27,5.7,4.3q6.1.07,12.2.41c7.61.42,12.18,4.32,12.81,10.8.85,8.88-3,16-10.74,16.7-9.65.92-19.45.22-29.46.22v-9.19c7.08,0,13.82.07,20.55,0,3.45,0,8.24,1.12,8.35-4.25.11-5.71-4.83-4.49-8.44-4.66s-7.57,0-11.24-.61c-8.08-1.4-11.3-6-10.94-14.88.28-6.85,5.08-12.37,12.25-12.74,9.3-.47,18.64-.11,28.45-.11Z"/><path class="cls-1" d="M419.59,323.33v-8.67c1.56-.15,3-.38,4.43-.4,5.73,0,11.46,0,17.19,0,3.38,0,7.31.29,7.42-4.39s-3.77-4.56-7.21-4.59c-4.05,0-8.17.15-12.16-.47-7.85-1.23-11.62-5.95-11.56-13.64.05-7.4,4.66-13.49,12.05-14,9.4-.65,18.88-.16,28.9-.16l-4.21,9.33c-6.47,0-12.63.05-18.79,0-3.33,0-6.42.65-6.59,4.49-.15,3.69,2.86,4.53,6,4.63,4.36.13,8.75,0,13.08.38,7.66.73,11.26,4.51,11.76,11.74.54,7.85-3.24,14.94-10,15.55C440,324,429.86,323.33,419.59,323.33Z"/><path class="cls-1" d="M262.85,277.49c-10.4-.94-21-.29-31.47-.29-.21,0-.42.39-.65.63v46h10.9V308.07c6.38,0,11.91.19,17.44-.05a14.47,14.47,0,0,0,14.26-13.58C274.09,285.6,270.23,278.14,262.85,277.49Zm-5.29,20.6c-5,.36-10.07.1-15.57.1V286.38c5.32,0,10.12-.18,14.86.08,3.24.18,5.22,2.32,5.4,5.58S260.9,297.85,257.56,298.09Z"/><path class="cls-1" d="M176.52,276.83h13.9L202,291.64l11.65-14.84h13.48c-6.51,8.18-12.42,15.63-18.56,23.34L227.42,324H213.55c-3.78-4.8-7.64-9.7-11.88-15.1l-11.79,15.16H176.34l18.72-23.53q-9.27-11.94-18.44-23.79Z"/><path class="cls-1" d="M324.67,190.92v10.41c-3.77,0-7.18,0-10.6,0-9,.06-14.06,4.74-14.28,13.26-.22,9,4.3,13.92,13.45,14.56.59,0,1.16.18,2.3.36-1.36,3.06-2.62,5.87-3.79,8.49-9.53,2-19.17-3.47-21.46-13a44,44,0,0,1-.58-17.34c1.52-8.77,7.31-14.49,16.43-15.65C312.05,191.21,318.07,191.26,324.67,190.92Z"/><path class="cls-1" d="M270.55,191.57h10.54v46.7H270.55Z"/><path class="cls-1" d="M176.62,276.73l-.09.1A.81.81,0,0,1,176.62,276.73Z"/></svg>