<svg xmlns="http://www.w3.org/2000/svg" width="20.567" height="23.505" viewBox="0 0 20.567 23.505">
  <path id="Icon_metro-attachment" data-name="Icon metro-attachment" d="M18.084,9.435l-1.491-1.49L9.137,15.4a3.163,3.163,0,1,0,4.473,4.472l8.947-8.945A5.271,5.271,0,0,0,15.1,3.472L5.709,12.865l-.02.019a7.352,7.352,0,0,0,10.4,10.4l.019-.02h0l6.412-6.411-1.492-1.49-6.412,6.41-.019.019a5.243,5.243,0,0,1-7.416-7.414l.02-.019h0l9.395-9.392a3.163,3.163,0,0,1,4.473,4.472L12.12,18.38a1.054,1.054,0,0,1-1.491-1.49l7.456-7.455Z" transform="translate(-3.535 -1.928)" fill="#717402"/>
</svg>
