<svg xmlns="http://www.w3.org/2000/svg" width="200" height="200" viewBox="0 0 200 200">
  <defs>
    <style>
      .cls-1 {
        fill: none;
      }

      .cls-2 {
        fill: #717402;
      }
    </style>
  </defs>
  <g id="calendar" transform="translate(-474 1011)">
    <rect id="Rectangle_69" data-name="Rectangle 69" class="cls-1" width="200" height="200" transform="translate(474 -1011)"/>
    <g id="Icon_feather-calendar" data-name="Icon feather-calendar" transform="translate(487.217 -1005.5)">
      <path id="Path_115" data-name="Path 115" class="cls-2" d="M22.267-2.5H151.3a26.3,26.3,0,0,1,26.267,26.267V152.8A26.3,26.3,0,0,1,151.3,179.067H22.267A26.3,26.3,0,0,1-4,152.8V23.767A26.3,26.3,0,0,1,22.267-2.5ZM151.3,163.4a10.611,10.611,0,0,0,10.6-10.6V23.767a10.611,10.611,0,0,0-10.6-10.6H22.267a10.611,10.611,0,0,0-10.6,10.6V152.8a10.611,10.611,0,0,0,10.6,10.6Z" transform="translate(0 15.433)"/>
      <path id="Path_116" data-name="Path 116" class="cls-2" d="M23.334,47.035A7.834,7.834,0,0,1,15.5,39.2V2.334a7.834,7.834,0,1,1,15.668,0V39.2A7.834,7.834,0,0,1,23.334,47.035Z" transform="translate(100.316 0)"/>
      <path id="Path_117" data-name="Path 117" class="cls-2" d="M11.334,47.035A7.834,7.834,0,0,1,3.5,39.2V2.334a7.834,7.834,0,1,1,15.668,0V39.2A7.834,7.834,0,0,1,11.334,47.035Z" transform="translate(38.583 0)"/>
      <path id="Path_118" data-name="Path 118" class="cls-2" d="M169.733,22.168H3.834a7.834,7.834,0,1,1,0-15.668h165.9a7.834,7.834,0,1,1,0,15.668Z" transform="translate(0 61.733)"/>
    </g>
  </g>
</svg>
