<svg xmlns="http://www.w3.org/2000/svg" width="26.2" height="21.8" viewBox="0 0 26.2 21.8">
  <g id="Icon_feather-camera" data-name="Icon feather-camera" transform="translate(-0.5 -3.5)">
    <path id="Path_27" data-name="Path 27" d="M25.7,22.1a2.2,2.2,0,0,1-2.2,2.2H3.7a2.2,2.2,0,0,1-2.2-2.2V10A2.2,2.2,0,0,1,3.7,7.8H8.1l2.2-3.3h6.6l2.2,3.3h4.4A2.2,2.2,0,0,1,25.7,10Z" fill="none" stroke="#fff" stroke-linecap="round" stroke-linejoin="round" stroke-width="2"/>
    <path id="Path_28" data-name="Path 28" d="M20.8,17.9a4.4,4.4,0,1,1-4.4-4.4,4.4,4.4,0,0,1,4.4,4.4Z" transform="translate(-2.8 -2.4)" fill="none" stroke="#fff" stroke-linecap="round" stroke-linejoin="round" stroke-width="2"/>
  </g>
</svg>
