<svg xmlns="http://www.w3.org/2000/svg" width="15" height="15" viewBox="0 0 15 15">
  <g id="document_pending" transform="translate(-86 -527)">
    <circle id="Ellipse_23" data-name="Ellipse 23" cx="7.5" cy="7.5" r="7.5" transform="translate(86 527)" fill="#e5be0a"/>
    <path id="Icon_awesome-question" data-name="Icon awesome-question" d="M5.073,0A3.6,3.6,0,0,0,1.88,1.689a.446.446,0,0,0,.1.61l.8.607a.445.445,0,0,0,.617-.077,1.8,1.8,0,0,1,1.535-.917c.571,0,1.277.367,1.277.921,0,.418-.345.633-.909.949-.657.368-1.527.827-1.527,1.974v.182a.445.445,0,0,0,.445.445H5.559A.445.445,0,0,0,6,5.937V5.83C6,5.035,8.329,5,8.329,2.85A3.188,3.188,0,0,0,5.073,0ZM4.887,6.929A1.285,1.285,0,1,0,6.172,8.214,1.287,1.287,0,0,0,4.887,6.929Z" transform="translate(88.436 529.75)" fill="#fff"/>
  </g>
</svg>
