<svg xmlns="http://www.w3.org/2000/svg" width="36" height="36" viewBox="0 0 36 36"><g transform="translate(-268 -474)"><path d="M15.75,9.563V0H1.688A1.683,1.683,0,0,0,0,1.688V34.313A1.683,1.683,0,0,0,1.688,36H25.313A1.683,1.683,0,0,0,27,34.313V11.25H17.438A1.692,1.692,0,0,1,15.75,9.563Zm4.583,15.188H15.75v5.625A1.125,1.125,0,0,1,14.625,31.5h-2.25a1.125,1.125,0,0,1-1.125-1.125V24.751H6.667a1.125,1.125,0,0,1-.792-1.924l6.78-6.729a1.2,1.2,0,0,1,1.69,0l6.78,6.729A1.125,1.125,0,0,1,20.333,24.751ZM26.508,7.383,19.624.492A1.686,1.686,0,0,0,18.429,0H18V9h9V8.571A1.682,1.682,0,0,0,26.508,7.383Z" transform="translate(273 474)" fill="#717402"/><rect width="36" height="36" transform="translate(268 474)" fill="none"/></g></svg>