<svg xmlns="http://www.w3.org/2000/svg" width="36" height="36" viewBox="0 0 36 36">
  <g id="file" transform="translate(-268 -474)">
    <path id="Icon_awesome-file" data-name="Icon awesome-file" d="M15.75,9.563V0H1.688A1.683,1.683,0,0,0,0,1.688V34.313A1.683,1.683,0,0,0,1.688,36H25.313A1.683,1.683,0,0,0,27,34.313V11.25H17.438A1.692,1.692,0,0,1,15.75,9.563ZM27,8.571V9H18V0h.429a1.686,1.686,0,0,1,1.2.492l6.884,6.891A1.682,1.682,0,0,1,27,8.571Z" transform="translate(273 474)" fill="#717402"/>
    <rect id="Rectangle_66" data-name="Rectangle 66" width="36" height="36" transform="translate(268 474)" fill="none"/>
  </g>
</svg>
