<svg xmlns="http://www.w3.org/2000/svg" width="200" height="200" viewBox="0 0 200 200">
  <defs>
    <style>
      .cls-1 {
        fill: none;
      }

      .cls-2 {
        fill: #717402;
      }
    </style>
  </defs>
  <g id="person" transform="translate(-1310 762)">
    <rect id="Rectangle_75" data-name="Rectangle 75" class="cls-1" width="200" height="200" transform="translate(1310 -762)"/>
    <g id="Icon_feather-user" data-name="Icon feather-user" transform="translate(1322.741 -758)">
      <path id="Path_115" data-name="Path 115" class="cls-2" d="M169.185,91.112a7.834,7.834,0,0,1-7.834-7.834V62.8a33.166,33.166,0,0,0-33.129-33.129H46.3A33.129,33.129,0,0,0,13.168,62.8V83.278a7.834,7.834,0,1,1-15.668,0V62.8A48.8,48.8,0,0,1,46.3,14h81.925a48.852,48.852,0,0,1,48.8,48.8V83.278A7.834,7.834,0,0,1,169.185,91.112Z" transform="translate(0 104.888)"/>
      <path id="Path_116" data-name="Path 116" class="cls-2" d="M52.3-4A48.8,48.8,0,1,1,3.5,44.8,48.852,48.852,0,0,1,52.3-4Zm0,81.925A33.129,33.129,0,1,0,19.168,44.8,33.166,33.166,0,0,0,52.3,77.925Z" transform="translate(34.963 0)"/>
    </g>
  </g>
</svg>
