<svg xmlns="http://www.w3.org/2000/svg" width="200" height="200" viewBox="0 0 200 200">
  <defs>
    <style>
      .cls-1 {
        fill: none;
      }

      .cls-2 {
        fill: #717402;
      }
    </style>
  </defs>
  <g id="send-message" transform="translate(-235 463)">
    <rect id="Rectangle_79" data-name="Rectangle 79" class="cls-1" width="200" height="200" transform="translate(235 -463)"/>
    <g id="Icon_feather-send" data-name="Icon feather-send" transform="translate(226.833 -471.166)">
      <path id="Path_117" data-name="Path 117" class="cls-2" d="M91,125.217a7.834,7.834,0,0,1-5.54-13.374L186.844,10.461A7.834,7.834,0,0,1,197.923,21.54L96.54,122.923A7.81,7.81,0,0,1,91,125.217Z" transform="translate(7.949 0)"/>
      <path id="Path_118" data-name="Path 118" class="cls-2" d="M200.331,8.166a7.834,7.834,0,0,1,7.4,10.422L143.211,202.92a7.834,7.834,0,0,1-14.553.594l-35.643-80.2-80.2-35.643a7.834,7.834,0,0,1,.594-14.553L197.744,8.606A7.825,7.825,0,0,1,200.331,8.166ZM134.95,179.093,187.563,28.77,37.24,81.383l64.892,28.841a7.834,7.834,0,0,1,3.977,3.977Z"/>
    </g>
  </g>
</svg>
