<svg id="Estrella" xmlns="http://www.w3.org/2000/svg" width="18.02" height="17.119" viewBox="0 0 18.02 17.119">
  <path id="Icon_material-star" data-name="Icon material-star" d="M12.01,16.758l5.568,3.361L16.1,13.785,21.02,9.523l-6.478-.55L12.01,3,9.478,8.974,3,9.523l4.919,4.262L6.442,20.119Z" transform="translate(-3 -3)" fill="#b3cc1d" opacity="0"/>
  <path id="Icon_material-star-half" data-name="Icon material-star-half" d="M21.02,9.523l-6.478-.559L12.01,3,9.478,8.974,3,9.523l4.919,4.262L6.442,20.119l5.568-3.361,5.568,3.361L16.11,13.785Zm-9.01,5.55V6.694l1.541,3.64,3.946.342-2.991,2.595.9,3.856Z" transform="translate(-3 -3)" fill="#b3cc1d" opacity="0"/>
  <path id="Icon_material-star-border" data-name="Icon material-star-border" d="M21.02,9.523l-6.478-.559L12.01,3,9.478,8.974,3,9.523l4.919,4.262L6.442,20.119l5.568-3.361,5.568,3.361L16.11,13.785Zm-9.01,5.55L8.622,17.119l.9-3.856L6.532,10.668l3.946-.342L12.01,6.694l1.541,3.64,3.946.342-2.991,2.595.9,3.856Z" transform="translate(-3 -3)" fill="#b3cc1d"/>
</svg>
