<svg xmlns="http://www.w3.org/2000/svg" width="184" height="188" viewBox="0 0 184 188">
  <g id="Group_131" data-name="Group 131" transform="translate(-556 711)">
    <rect id="Rectangle_58" data-name="Rectangle 58" width="184" height="188" transform="translate(556 -711)" fill="none"/>
    <path id="Icon_material-call-end" data-name="Icon material-call-end" d="M91.78,25.8A114.043,114.043,0,0,0,56.6,31.3v23.71A7.706,7.706,0,0,1,52.315,61.9,88.04,88.04,0,0,0,31.97,76.046a7.511,7.511,0,0,1-5.354,2.142,7.624,7.624,0,0,1-5.43-2.218L2.218,57A7.315,7.315,0,0,1,0,51.648a7.624,7.624,0,0,1,2.218-5.43,130.147,130.147,0,0,1,179.124,0,7.756,7.756,0,0,1,0,10.861L162.374,76.046a7.624,7.624,0,0,1-5.43,2.218,7.848,7.848,0,0,1-5.354-2.142,86.2,86.2,0,0,0-20.421-14.149,7.62,7.62,0,0,1-4.283-6.884V31.38A111.02,111.02,0,0,0,91.78,25.8Z" transform="translate(556.22 -661.382)" fill="#fff"/>
  </g>
</svg>
