<svg xmlns="http://www.w3.org/2000/svg" width="184" height="188" viewBox="0 0 184 188">
  <g id="Group_128" data-name="Group 128" transform="translate(-883 711)">
    <path id="Icon_awesome-video" data-name="Icon awesome-video" d="M96.617,4.5H13.737A13.736,13.736,0,0,0,0,18.237v82.88a13.736,13.736,0,0,0,13.737,13.737h82.88a13.736,13.736,0,0,0,13.737-13.737V18.237A13.736,13.736,0,0,0,96.617,4.5Zm54.429,10.834-31.5,21.726V82.293l31.5,21.7a9.215,9.215,0,0,0,14.484-7.414V22.749C165.53,15.449,157.167,11.138,151.046,15.334Z" transform="translate(892 -677.5)" fill="#fff"/>
    <rect id="Rectangle_59" data-name="Rectangle 59" width="184" height="188" transform="translate(883 -711)" fill="none"/>
  </g>
</svg>
