<svg xmlns="http://www.w3.org/2000/svg" width="24" height="24" viewBox="0 0 24 24">
  <g id="Icon_ionic-ios-log-out" data-name="Icon ionic-ios-log-out" transform="translate(-3.375 -5.625)">
    <path id="Path_25" data-name="Path 25" d="M18.609,25.534a.893.893,0,0,0-.808.955,1.148,1.148,0,0,1-1.039,1.227H6.029a1.148,1.148,0,0,1-1.039-1.227V8.761A1.148,1.148,0,0,1,6.029,7.534H16.763A1.148,1.148,0,0,1,17.8,8.761a.819.819,0,1,0,1.616,0,2.926,2.926,0,0,0-2.654-3.136H6.029A2.926,2.926,0,0,0,3.375,8.761V26.489a2.926,2.926,0,0,0,2.654,3.136H16.763a2.926,2.926,0,0,0,2.654-3.136A.893.893,0,0,0,18.609,25.534Z" transform="translate(0 0)" fill="#484848"/>
    <path id="Path_26" data-name="Path 26" d="M23.384,11.108a.746.746,0,0,0-.571-.28.733.733,0,0,0-.571.28,1.076,1.076,0,0,0,0,1.35L26,16.835H11.214a.968.968,0,0,0,0,1.909H26.022l-3.67,4.37a1.092,1.092,0,0,0,0,1.35l.006.007a.771.771,0,0,0,.566.266.725.725,0,0,0,.571-.28l4.767-5.618a1.508,1.508,0,0,0,0-1.991Z" transform="translate(-1.261 -0.158)" fill="#484848"/>
  </g>
</svg>
