<svg xmlns="http://www.w3.org/2000/svg" width="184" height="188" viewBox="0 0 184 188">
  <g id="Group_127" data-name="Group 127" transform="translate(-23 779)">
    <rect id="Rectangle_56" data-name="Rectangle 56" width="184" height="188" transform="translate(23 -779)" fill="none"/>
    <path id="Icon_ionic-md-mic" data-name="Icon ionic-md-mic" d="M72.387,120.4a28.243,28.243,0,0,0,28.13-28.189V30.439a28.13,28.13,0,1,0-56.26,0V92.208A28.243,28.243,0,0,0,72.387,120.4Zm49.695-30.953c0,28.189-23.909,47.921-49.695,47.921S22.692,117.632,22.692,89.444H6.75c0,31.946,25.319,58.726,56.261,62.956v33.634H81.764V152.4c30.941-4.7,56.26-31.01,56.26-62.956Z" transform="translate(43.09 -779.392)" fill="#fff"/>
  </g>
</svg>
