<svg xmlns="http://www.w3.org/2000/svg" width="56" height="56" viewBox="0 0 56 56">
  <g id="Group_92" data-name="Group 92" transform="translate(-351 -26)">
    <g id="Group_65" data-name="Group 65">
      <g id="Ellipse_3" data-name="Ellipse 3" transform="translate(351 26)" fill="#fff" stroke="#717402" stroke-width="1">
        <circle cx="28" cy="28" r="28" stroke="none"/>
        <circle cx="28" cy="28" r="27.5" fill="none"/>
      </g>
    </g>
    <g id="Subtraction_3" data-name="Subtraction 3" transform="translate(3817.5 2153)" fill="#eff284">
      <path d="M -3438.5 -2074.499755859375 C -3442.82958984375 -2074.499755859375 -3446.892822265625 -2075.353515625 -3449.940673828125 -2076.903564453125 C -3452.880859375 -2078.39892578125 -3454.500244140625 -2080.348388671875 -3454.500244140625 -2082.392578125 C -3454.500244140625 -2083.834716796875 -3453.677001953125 -2085.25537109375 -3452.119873046875 -2086.501220703125 C -3450.539306640625 -2087.764404296875 -3448.297607421875 -2088.783203125 -3445.63720703125 -2089.447509765625 L -3444.30322265625 -2089.780517578125 L -3445.53955078125 -2090.382080078125 C -3448.187255859375 -2091.6708984375 -3450.425048828125 -2093.658935546875 -3452.010986328125 -2096.131591796875 C -3453.639404296875 -2098.67041015625 -3454.500244140625 -2101.6103515625 -3454.500244140625 -2104.6337890625 C -3454.500244140625 -2108.87109375 -3452.83642578125 -2112.85498046875 -3449.815185546875 -2115.8515625 C -3446.79296875 -2118.849365234375 -3442.7744140625 -2120.500244140625 -3438.5 -2120.500244140625 C -3434.2255859375 -2120.500244140625 -3430.20703125 -2118.849365234375 -3427.1845703125 -2115.8515625 C -3424.163330078125 -2112.85498046875 -3422.49951171875 -2108.87109375 -3422.49951171875 -2104.6337890625 C -3422.49951171875 -2101.6103515625 -3423.3603515625 -2098.67041015625 -3424.98876953125 -2096.131591796875 C -3426.57470703125 -2093.65869140625 -3428.8125 -2091.670654296875 -3431.460205078125 -2090.38232421875 L -3432.696533203125 -2089.780517578125 L -3431.362548828125 -2089.447509765625 C -3428.70166015625 -2088.783203125 -3426.4599609375 -2087.764404296875 -3424.8798828125 -2086.5009765625 C -3423.32275390625 -2085.25537109375 -3422.49951171875 -2083.834716796875 -3422.49951171875 -2082.392578125 C -3422.49951171875 -2080.348388671875 -3424.118896484375 -2078.39892578125 -3427.05908203125 -2076.90380859375 C -3430.10693359375 -2075.353515625 -3434.170166015625 -2074.499755859375 -3438.5 -2074.499755859375 Z" stroke="none"/>
      <path d="M -3438.5 -2074.999755859375 C -3434.247314453125 -2074.999755859375 -3430.264892578125 -2075.834228515625 -3427.285888671875 -2077.349365234375 C -3424.521728515625 -2078.7548828125 -3422.99951171875 -2080.546142578125 -3422.99951171875 -2082.392578125 C -3422.99951171875 -2083.677490234375 -3423.7578125 -2084.963134765625 -3425.192138671875 -2086.110595703125 C -3426.71630859375 -2087.3291015625 -3428.89208984375 -2088.3154296875 -3431.483642578125 -2088.96240234375 L -3434.151611328125 -2089.62841796875 L -3431.678955078125 -2090.831787109375 C -3429.11376953125 -2092.080078125 -3426.946044921875 -2094.006103515625 -3425.40966796875 -2096.4013671875 C -3423.8330078125 -2098.859619140625 -3422.99951171875 -2101.706298828125 -3422.99951171875 -2104.6337890625 C -3422.99951171875 -2108.73681640625 -3424.61083984375 -2112.594482421875 -3427.53662109375 -2115.49658203125 C -3430.46484375 -2118.40087890625 -3434.3583984375 -2120.000244140625 -3438.5 -2120.000244140625 C -3442.641845703125 -2120.000244140625 -3446.53515625 -2118.40087890625 -3449.463134765625 -2115.49658203125 C -3452.388916015625 -2112.594482421875 -3454.000244140625 -2108.73681640625 -3454.000244140625 -2104.6337890625 C -3454.000244140625 -2101.706298828125 -3453.166748046875 -2098.859619140625 -3451.590087890625 -2096.4013671875 C -3450.0537109375 -2094.006103515625 -3447.8857421875 -2092.080078125 -3445.32080078125 -2090.831787109375 L -3442.848388671875 -2089.62841796875 L -3445.51611328125 -2088.96240234375 C -3448.107421875 -2088.3154296875 -3450.282958984375 -2087.3291015625 -3451.807373046875 -2086.110595703125 C -3453.241943359375 -2084.963134765625 -3454.000244140625 -2083.677490234375 -3454.000244140625 -2082.392578125 C -3454.000244140625 -2080.546142578125 -3452.47802734375 -2078.7548828125 -3449.7138671875 -2077.349365234375 C -3446.73486328125 -2075.834228515625 -3442.75244140625 -2074.999755859375 -3438.5 -2074.999755859375 M -3438.5 -2073.999755859375 C -3442.906982421875 -2073.999755859375 -3447.050537109375 -2074.872802734375 -3450.167236328125 -2076.4580078125 C -3453.283935546875 -2078.04296875 -3455.000244140625 -2080.15087890625 -3455.000244140625 -2082.392578125 C -3455.000244140625 -2083.9921875 -3454.112060546875 -2085.5478515625 -3452.43212890625 -2086.8916015625 C -3450.796142578125 -2088.19921875 -3448.48828125 -2089.2509765625 -3445.75830078125 -2089.9326171875 C -3448.4892578125 -2091.26171875 -3450.796875 -2093.3125 -3452.431884765625 -2095.861572265625 C -3454.112060546875 -2098.48095703125 -3455.000244140625 -2101.514404296875 -3455.000244140625 -2104.6337890625 C -3455.000244140625 -2109.00537109375 -3453.283935546875 -2113.115234375 -3450.167236328125 -2116.20654296875 C -3447.05078125 -2119.2978515625 -3442.9072265625 -2121.000244140625 -3438.5 -2121.000244140625 C -3434.0927734375 -2121.000244140625 -3429.94921875 -2119.2978515625 -3426.83251953125 -2116.20654296875 C -3423.7158203125 -2113.115234375 -3421.99951171875 -2109.00537109375 -3421.99951171875 -2104.6337890625 C -3421.99951171875 -2101.514404296875 -3422.8876953125 -2098.48095703125 -3424.56787109375 -2095.861572265625 C -3426.203369140625 -2093.3115234375 -3428.51123046875 -2091.26123046875 -3431.241455078125 -2089.9326171875 C -3428.51025390625 -2089.250732421875 -3426.20263671875 -2088.19873046875 -3424.567626953125 -2086.8916015625 C -3422.8876953125 -2085.5478515625 -3421.99951171875 -2083.9921875 -3421.99951171875 -2082.392578125 C -3421.99951171875 -2080.15087890625 -3423.7158203125 -2078.04296875 -3426.83251953125 -2076.4580078125 C -3429.94921875 -2074.872802734375 -3434.0927734375 -2073.999755859375 -3438.5 -2073.999755859375 Z" stroke="none" fill="#eff284"/>
    </g>
  </g>
</svg>
