<svg xmlns="http://www.w3.org/2000/svg" width="184" height="188" viewBox="0 0 184 188">
  <g id="Group_137" data-name="Group 137" transform="translate(-883 711)">
    <path id="Icon_awesome-volume-mute" data-name="Icon awesome-volume-mute" d="M69.518,6.778,40.755,35.535h-33A7.757,7.757,0,0,0,0,43.294V89.849a7.759,7.759,0,0,0,7.759,7.759h33l28.764,28.757a7.764,7.764,0,0,0,13.245-5.486V12.265A7.764,7.764,0,0,0,69.518,6.778Zm79.728,59.794L164,51.816a5.218,5.218,0,0,0,0-7.378l-7.378-7.378a5.218,5.218,0,0,0-7.378,0L134.491,51.816,119.736,37.061a5.218,5.218,0,0,0-7.378,0l-7.378,7.378a5.218,5.218,0,0,0,0,7.378l14.755,14.755L104.984,81.324a5.218,5.218,0,0,0,0,7.378l7.378,7.378a5.218,5.218,0,0,0,7.378,0l14.752-14.752,14.755,14.755a5.218,5.218,0,0,0,7.378,0L164,88.7a5.218,5.218,0,0,0,0-7.378Z" transform="translate(892 -683.572)" fill="#fff"/>
    <rect id="Rectangle_59" data-name="Rectangle 59" width="184" height="188" transform="translate(883 -711)" fill="none"/>
  </g>
</svg>
