<svg xmlns="http://www.w3.org/2000/svg" width="184" height="188" viewBox="0 0 184 188">
  <g id="Group_136" data-name="Group 136" transform="translate(-883 711)">
    <path id="Icon_awesome-volume-up" data-name="Icon awesome-volume-up" d="M61.795,16.946,36.227,42.508H6.9a6.9,6.9,0,0,0-6.9,6.9V90.788a6.9,6.9,0,0,0,6.9,6.9h29.33l25.568,25.562a6.9,6.9,0,0,0,11.774-4.877V21.823A6.9,6.9,0,0,0,61.795,16.946ZM128.846,2.267a6.954,6.954,0,0,0-7.633,11.627,67.145,67.145,0,0,1,0,112.41,6.953,6.953,0,1,0,7.633,11.624,81.054,81.054,0,0,0,0-135.662Zm9.1,67.83a53.06,53.06,0,0,0-24.648-44.9,6.868,6.868,0,0,0-9.518,2.144,6.979,6.979,0,0,0,2.129,9.587,39.276,39.276,0,0,1,0,66.338,6.978,6.978,0,0,0-2.129,9.587A6.881,6.881,0,0,0,113.293,115,53.057,53.057,0,0,0,137.941,70.1ZM97.2,48.006a6.9,6.9,0,1,0-6.656,12.087,11.327,11.327,0,0,1,0,20.007A6.9,6.9,0,1,0,97.2,92.187a25.126,25.126,0,0,0,0-44.181Z" transform="translate(892 -687.098)" fill="#fff"/>
    <rect id="Rectangle_59" data-name="Rectangle 59" width="184" height="188" transform="translate(883 -711)" fill="none"/>
  </g>
</svg>
